<mxfile host="app.diagrams.net" modified="2024-05-09T13:28:35.306Z" agent="Mozilla/5.0 (Macintosh; Intel Mac OS X 10_15_7) AppleWebKit/537.36 (KHTML, like Gecko) Chrome/122.0.0.0 Safari/537.36" etag="GeloMyr3igfjxQTKIKnE" version="24.3.1" type="github">
  <diagram name="第 1 页" id="qL6cyDrUnS2OOqVCLwzM">
    <mxGraphModel dx="698" dy="472" grid="1" gridSize="10" guides="1" tooltips="1" connect="1" arrows="1" fold="1" page="1" pageScale="1" pageWidth="827" pageHeight="1169" math="0" shadow="0">
      <root>
        <mxCell id="0" />
        <mxCell id="1" parent="0" />
        <mxCell id="dUx3QPafvSOdXkpsurSU-1" value="用户" style="shape=umlActor;verticalLabelPosition=bottom;verticalAlign=top;html=1;outlineConnect=0;" vertex="1" parent="1">
          <mxGeometry x="90" y="270" width="30" height="60" as="geometry" />
        </mxCell>
        <mxCell id="dUx3QPafvSOdXkpsurSU-2" value="登录" style="ellipse;whiteSpace=wrap;html=1;" vertex="1" parent="1">
          <mxGeometry x="200" y="130" width="120" height="80" as="geometry" />
        </mxCell>
        <mxCell id="dUx3QPafvSOdXkpsurSU-3" value="个人信息维护" style="ellipse;whiteSpace=wrap;html=1;" vertex="1" parent="1">
          <mxGeometry x="200" y="250" width="120" height="80" as="geometry" />
        </mxCell>
        <mxCell id="dUx3QPafvSOdXkpsurSU-4" value="开启面试" style="ellipse;whiteSpace=wrap;html=1;" vertex="1" parent="1">
          <mxGeometry x="200" y="350" width="120" height="80" as="geometry" />
        </mxCell>
        <mxCell id="dUx3QPafvSOdXkpsurSU-5" value="" style="endArrow=classic;html=1;rounded=0;exitX=1;exitY=0.3333333333333333;exitDx=0;exitDy=0;exitPerimeter=0;" edge="1" parent="1" source="dUx3QPafvSOdXkpsurSU-1" target="dUx3QPafvSOdXkpsurSU-2">
          <mxGeometry width="50" height="50" relative="1" as="geometry">
            <mxPoint x="140" y="260" as="sourcePoint" />
            <mxPoint x="190" y="210" as="targetPoint" />
          </mxGeometry>
        </mxCell>
        <mxCell id="dUx3QPafvSOdXkpsurSU-6" value="" style="endArrow=classic;html=1;rounded=0;" edge="1" parent="1" source="dUx3QPafvSOdXkpsurSU-1" target="dUx3QPafvSOdXkpsurSU-3">
          <mxGeometry width="50" height="50" relative="1" as="geometry">
            <mxPoint x="130" y="320" as="sourcePoint" />
            <mxPoint x="190" y="300" as="targetPoint" />
          </mxGeometry>
        </mxCell>
        <mxCell id="dUx3QPafvSOdXkpsurSU-7" value="" style="endArrow=classic;html=1;rounded=0;" edge="1" parent="1" source="dUx3QPafvSOdXkpsurSU-1" target="dUx3QPafvSOdXkpsurSU-4">
          <mxGeometry width="50" height="50" relative="1" as="geometry">
            <mxPoint x="120" y="420" as="sourcePoint" />
            <mxPoint x="170" y="370" as="targetPoint" />
          </mxGeometry>
        </mxCell>
        <mxCell id="dUx3QPafvSOdXkpsurSU-14" value="" style="edgeStyle=orthogonalEdgeStyle;rounded=0;orthogonalLoop=1;jettySize=auto;html=1;" edge="1" parent="1" source="dUx3QPafvSOdXkpsurSU-8" target="dUx3QPafvSOdXkpsurSU-13">
          <mxGeometry relative="1" as="geometry" />
        </mxCell>
        <mxCell id="dUx3QPafvSOdXkpsurSU-8" value="管理员" style="shape=umlActor;verticalLabelPosition=bottom;verticalAlign=top;html=1;outlineConnect=0;" vertex="1" parent="1">
          <mxGeometry x="414" y="260" width="30" height="60" as="geometry" />
        </mxCell>
        <mxCell id="dUx3QPafvSOdXkpsurSU-13" value="常见管理功能" style="ellipse;whiteSpace=wrap;html=1;" vertex="1" parent="1">
          <mxGeometry x="520" y="250" width="120" height="80" as="geometry" />
        </mxCell>
      </root>
    </mxGraphModel>
  </diagram>
</mxfile>
